<svg width="51" height="58" viewBox="0 0 51 58" fill="none" xmlns="http://www.w3.org/2000/svg">
<path d="M9.54 48.56C8.844 48.56 8.232 48.512 7.704 48.416C7.176 48.344 6.72 48.26 6.336 48.164V43.628C6.72 43.724 7.128 43.808 7.56 43.88C7.968 43.952 8.412 43.988 8.892 43.988C9.516 43.988 10.08 43.868 10.584 43.628C11.112 43.388 11.52 42.932 11.808 42.26C12.096 41.588 12.24 40.628 12.24 39.38V15.296H17.676V39.344C17.676 41.552 17.328 43.328 16.632 44.672C15.96 46.04 15.012 47.024 13.788 47.624C12.564 48.248 11.148 48.56 9.54 48.56ZM33.914 26.564H44.102V39.884C42.758 40.34 41.354 40.7 39.89 40.964C38.45 41.228 36.806 41.36 34.958 41.36C31.118 41.36 28.166 40.232 26.102 37.976C24.038 35.72 23.006 32.432 23.006 28.112C23.006 25.424 23.522 23.096 24.554 21.128C25.61 19.16 27.134 17.636 29.126 16.556C31.118 15.476 33.554 14.936 36.434 14.936C37.802 14.936 39.146 15.08 40.466 15.368C41.786 15.656 42.986 16.04 44.066 16.52L42.266 20.876C41.474 20.468 40.574 20.132 39.566 19.868C38.558 19.604 37.502 19.472 36.398 19.472C34.814 19.472 33.434 19.832 32.258 20.552C31.106 21.272 30.206 22.292 29.558 23.612C28.934 24.908 28.622 26.444 28.622 28.22C28.622 29.9 28.85 31.388 29.306 32.684C29.762 33.98 30.482 35 31.466 35.744C32.45 36.464 33.734 36.824 35.318 36.824C36.086 36.824 36.734 36.788 37.262 36.716C37.814 36.644 38.318 36.56 38.774 36.464V31.1H33.914V26.564Z" fill="white"/>
<path d="M2 11C11.4361 11 20.5848 11 30.0037 11C36.3435 11 42.6662 11 49 11" stroke="white" stroke-width="3" stroke-linecap="round" stroke-linejoin="round"/>
<path d="M49 40C49 34.1777 49 28.5328 49 22.7211C49 18.8093 49 14.9081 49 11" stroke="white" stroke-width="3" stroke-linecap="round" stroke-linejoin="round"/>
<path d="M2 53C2 51.1931 2 49.4412 2 47.6376C2 46.4236 2 45.2128 2 44" stroke="white" stroke-width="3" stroke-linecap="round" stroke-linejoin="round"/>
<path d="M2 53C11.4361 53 20.5848 53 30.0037 53C36.3435 53 42.6662 53 49 53" stroke="white" stroke-width="3" stroke-linecap="round" stroke-linejoin="round"/>
</svg>
